<?xml version="1.0" standalone="no"?>
<!DOCTYPE svg PUBLIC "-//W3C//DTD SVG 20010904//EN"
 "http://www.w3.org/TR/2001/REC-SVG-20010904/DTD/svg10.dtd">
<svg version="1.0" xmlns="http://www.w3.org/2000/svg"
 width="255.000000pt" height="273.000000pt" viewBox="0 0 255.000000 273.000000"
 preserveAspectRatio="xMidYMid meet">

<g transform="translate(0.000000,273.000000) scale(0.100000,-0.100000)"
fill="#000000" stroke="none">
<path d="M1395 2632 c-55 -25 -102 -47 -104 -49 -3 -2 5 -24 17 -48 39 -81 34
-107 -95 -426 -64 -159 -120 -289 -123 -289 -4 0 -19 30 -34 68 -101 256 -254
398 -441 410 -80 5 -244 -26 -281 -53 -30 -21 -12 -26 41 -10 26 8 81 15 121
15 108 0 173 -28 251 -106 l63 -62 -16 -38 c-9 -22 -138 -329 -286 -684 -148
-355 -280 -662 -293 -682 -30 -44 -100 -88 -155 -95 -22 -3 -40 -10 -40 -14 0
-5 101 -9 225 -9 143 0 225 -4 225 -10 0 -6 63 -10 170 -10 146 0 170 2 170
15 0 9 -8 18 -17 22 -33 11 -63 46 -69 80 -10 55 14 147 83 321 l65 163 147
-3 146 -3 47 -140 c127 -376 224 -564 368 -718 131 -140 272 -209 428 -208 49
0 95 3 103 5 8 3 33 10 57 16 63 16 51 30 -20 24 -77 -7 -167 14 -253 59 -148
78 -330 333 -446 625 -38 94 -189 522 -189 534 0 4 123 8 274 8 210 0 275 -3
279 -12 3 -7 53 -128 112 -268 171 -407 178 -432 125 -472 -61 -45 -48 -48
205 -48 226 0 235 1 235 19 0 11 -9 22 -19 26 -38 12 -119 114 -164 207 -24
51 -212 497 -418 991 -205 493 -378 897 -384 896 -5 0 -55 -21 -110 -47z m186
-743 c111 -266 203 -490 206 -497 4 -10 -52 -12 -272 -10 l-277 3 -59 169
c-33 92 -59 175 -59 184 0 17 251 644 256 639 2 -2 94 -221 205 -488z m-681
11 c12 -30 42 -109 65 -176 l43 -121 -81 -201 -81 -202 -143 0 c-79 0 -143 2
-143 4 0 6 290 749 297 759 8 13 20 -3 43 -63z m158 -447 c12 -37 20 -69 18
-71 -2 -1 -26 -2 -54 0 l-49 3 26 68 c14 37 28 67 31 67 3 0 16 -30 28 -67z
m59 -178 c12 -33 22 -63 22 -67 1 -5 -53 -8 -120 -8 -93 0 -120 3 -116 13 3 6
13 32 22 57 28 69 30 71 104 68 l66 -3 22 -60z m-297 -139 c0 -9 -126 -308
-150 -356 -62 -122 -143 -200 -206 -200 -48 0 -98 46 -98 91 0 30 123 366 161
442 l14 27 139 0 c77 0 140 -2 140 -4z"/>
<path d="M156 272 c-14 -37 -26 -71 -26 -75 0 -16 28 -5 33 13 4 14 14 20 35
20 21 0 31 -6 35 -20 3 -11 12 -20 21 -20 13 0 11 11 -10 67 -14 37 -28 71
-30 75 -14 23 -35 1 -58 -60z m47 -20 c-21 -5 -25 2 -17 34 l7 29 13 -30 c10
-25 10 -31 -3 -33z"/>
<path d="M310 265 c0 -58 3 -75 14 -75 9 0 16 12 18 27 4 40 33 41 53 4 8 -17
22 -31 30 -31 19 0 19 5 -2 36 -16 25 -16 27 0 36 47 26 -1 78 -70 78 l-43 0
0 -75z m95 25 c0 -10 -12 -16 -32 -18 -28 -3 -33 0 -33 18 0 18 5 21 33 18 20
-2 32 -8 32 -18z"/>
<path d="M480 325 c0 -9 9 -15 25 -15 24 0 25 -3 25 -60 0 -47 3 -60 15 -60
12 0 15 13 15 60 0 53 2 60 20 60 11 0 20 7 20 15 0 12 -13 15 -60 15 -47 0
-60 -3 -60 -15z"/>
<path d="M670 278 c-13 -35 -25 -69 -27 -75 -3 -7 2 -13 10 -13 9 0 19 9 22
20 4 14 15 20 35 20 20 0 31 -6 35 -20 3 -11 12 -20 20 -20 10 0 8 17 -12 75
-32 97 -51 100 -83 13z m50 13 c0 -5 3 -16 6 -25 4 -12 0 -16 -16 -16 -16 0
-20 4 -16 16 3 9 6 20 6 25 0 5 5 9 10 9 6 0 10 -4 10 -9z"/>
<path d="M830 266 l0 -76 55 0 c30 0 55 5 55 10 0 6 -18 10 -40 10 l-39 0 -3
62 c-2 38 -8 63 -15 66 -10 3 -13 -16 -13 -72z"/>
<path d="M980 330 c0 -5 9 -24 20 -42 11 -18 20 -48 20 -65 0 -23 5 -33 15
-33 10 0 15 10 15 27 0 14 12 46 26 70 14 25 23 47 20 50 -8 8 -34 -16 -41
-38 -9 -26 -17 -24 -37 11 -16 29 -38 40 -38 20z"/>
<path d="M1168 329 c-21 -12 -24 -42 -5 -56 6 -6 26 -15 42 -20 17 -5 30 -16
30 -24 0 -19 -33 -24 -61 -8 -30 15 -40 7 -19 -15 21 -20 79 -21 99 0 30 29
16 56 -37 69 -32 9 -43 23 -28 38 8 8 18 7 36 -3 31 -16 47 -4 21 16 -23 16
-54 18 -78 3z"/>
<path d="M1310 325 c0 -8 9 -15 20 -15 18 0 20 -7 20 -60 0 -47 3 -60 15 -60
12 0 15 13 15 60 0 57 1 60 25 60 16 0 25 6 25 15 0 12 -13 15 -60 15 -47 0
-60 -3 -60 -15z"/>
</g>
</svg>
