<?xml version="1.0" standalone="no"?>
<!DOCTYPE svg PUBLIC "-//W3C//DTD SVG 20010904//EN"
 "http://www.w3.org/TR/2001/REC-SVG-20010904/DTD/svg10.dtd">
<svg version="1.0" xmlns="http://www.w3.org/2000/svg"
 width="335.000000pt" height="323.000000pt" viewBox="0 0 335.000000 323.000000"
 preserveAspectRatio="xMidYMid meet">

<g transform="translate(0.000000,323.000000) scale(0.100000,-0.100000)"
fill="#000000" stroke="none">
<path d="M1415 3111 c-381 -71 -670 -228 -909 -497 -261 -292 -396 -646 -396
-1036 0 -415 160 -799 455 -1093 223 -223 489 -366 798 -427 160 -32 434 -32
594 0 262 52 491 161 693 330 229 191 387 423 480 701 53 158 72 268 77 456 4
132 1 182 -16 285 -109 643 -581 1132 -1226 1270 -144 31 -412 37 -550 11z
m-55 -796 c0 -20 356 -1167 371 -1198 21 -40 66 -67 113 -67 14 0 28 -4 31
-10 4 -7 -85 -10 -259 -10 -146 0 -266 4 -266 9 0 5 25 11 55 13 126 11 138
58 72 278 l-43 145 -247 3 -246 2 -40 -124 c-50 -153 -60 -225 -37 -260 17
-26 69 -46 123 -46 17 0 35 -4 38 -10 4 -7 -58 -10 -179 -10 -175 0 -235 10
-148 24 54 8 85 36 115 103 14 32 98 294 185 583 l160 525 -36 17 c-20 10 -56
18 -79 18 -23 0 -45 5 -48 10 -4 7 58 10 179 10 102 0 186 -2 186 -5z m1161
-511 c31 -38 -2 -123 -57 -144 -12 -5 -24 -20 -26 -34 -8 -42 30 -33 72 15 32
37 41 42 88 46 l52 4 0 -38 c0 -111 -156 -201 -248 -144 -49 32 -72 76 -72
144 0 32 6 70 14 85 16 30 53 66 76 75 32 12 88 7 101 -9z m64 -64 c-38 -38
-71 -67 -74 -64 -6 6 120 134 133 134 6 0 -21 -31 -59 -70z m-650 -5 c14 -13
25 -31 25 -40 0 -19 -44 -65 -62 -65 -7 0 -2 -7 11 -16 12 -9 32 -37 42 -63
11 -25 28 -52 37 -59 15 -12 15 -13 -8 -10 -19 2 -31 17 -53 63 -33 67 -40 75
-80 75 l-29 0 4 -70 c3 -64 1 -70 -17 -70 -19 0 -20 7 -20 140 l0 140 63 0
c53 0 67 -4 87 -25z m275 3 c-1 -21 -2 -21 -11 -5 -6 11 -22 17 -44 17 l-35 0
0 -123 c0 -82 4 -127 12 -135 9 -9 5 -12 -20 -12 -29 0 -32 2 -22 19 5 11 10
72 10 135 l0 116 -34 0 c-18 0 -39 -7 -46 -15 -15 -19 -23 -14 -14 9 5 13 23
16 105 16 96 0 99 -1 99 -22z m275 -109 c0 -7 -8 -15 -17 -17 -18 -3 -25 18
-11 32 10 10 28 1 28 -15z m-643 -374 l-3 -135 60 0 c47 0 62 4 70 18 9 15 10
15 11 -5 0 -22 -3 -23 -87 -23 l-88 0 0 140 c0 133 1 140 20 140 19 0 20 -6
17 -135z m198 122 c0 -13 58 -127 65 -127 8 0 65 109 65 124 0 10 8 16 21 16
18 0 19 -1 5 -16 -9 -8 -32 -44 -52 -80 -32 -57 -35 -70 -32 -124 3 -54 1 -60
-17 -60 -18 0 -20 6 -17 65 3 58 0 72 -28 123 -18 31 -39 65 -48 75 -14 16
-13 17 11 17 16 0 27 -6 27 -13z m248 2 c-59 -22 -43 -78 33 -114 65 -30 89
-52 89 -83 0 -29 -36 -72 -59 -72 -10 0 -6 5 9 13 31 16 37 52 14 78 -10 11
-40 30 -67 41 -50 22 -77 50 -77 81 0 23 44 67 67 66 12 0 9 -4 -9 -10z m106
-5 c9 -8 16 -20 16 -25 0 -14 -17 -11 -23 6 -4 8 -21 18 -39 24 l-33 9 32 1
c17 1 39 -6 47 -15z m246 -6 c-1 -21 -2 -21 -11 -5 -6 11 -22 17 -44 17 l-35
0 0 -123 c0 -82 4 -127 12 -135 9 -9 5 -12 -20 -12 -29 0 -32 2 -22 19 5 11
10 72 10 135 l0 116 -34 0 c-18 0 -39 -7 -46 -15 -15 -19 -23 -14 -14 9 5 13
23 16 105 16 96 0 99 -1 99 -22z m-395 -209 c4 -11 21 -27 38 -34 31 -14 31
-14 6 -15 -31 0 -55 18 -62 48 -7 28 9 29 18 1z"/>
<path d="M1082 1943 c-51 -170 -92 -322 -92 -340 0 -85 28 -96 253 -101 102
-3 177 0 177 5 0 5 -47 161 -105 347 -93 296 -127 396 -138 396 -2 0 -45 -138
-95 -307z"/>
<path d="M2456 1785 c-21 -21 -21 -54 0 -62 26 -10 49 11 49 43 0 34 -24 43
-49 19z m39 -26 c0 -15 -7 -25 -18 -27 -22 -4 -33 24 -17 43 18 21 35 13 35
-16z"/>
<path d="M2373 1743 c-7 -3 -13 -16 -13 -29 0 -19 5 -24 25 -24 20 0 25 5 25
24 0 25 -15 36 -37 29z m27 -29 c0 -8 -7 -14 -15 -14 -15 0 -21 21 -9 33 10 9
24 -2 24 -19z"/>
<path d="M2346 1654 c-4 -10 -1 -24 7 -31 19 -19 49 -5 45 21 -4 27 -43 34
-52 10z m44 -7 c0 -8 -3 -17 -7 -20 -9 -9 -34 13 -27 24 8 14 34 11 34 -4z"/>
<path d="M2570 1615 c0 -20 5 -25 25 -25 20 0 25 5 25 25 0 20 -5 25 -25 25
-20 0 -25 -5 -25 -25z m40 0 c0 -8 -7 -15 -15 -15 -8 0 -15 7 -15 15 0 8 7 15
15 15 8 0 15 -7 15 -15z"/>
<path d="M2374 1585 c-8 -21 2 -45 19 -45 8 0 20 7 27 15 10 12 10 18 0 30 -7
8 -19 15 -27 15 -7 0 -16 -7 -19 -15z m42 -6 c10 -17 -13 -36 -27 -22 -12 12
-4 33 11 33 5 0 12 -5 16 -11z"/>
<path d="M2521 1572 c-12 -23 1 -45 25 -40 23 4 31 37 12 49 -19 13 -26 11
-37 -9z m39 -18 c0 -14 -21 -19 -33 -7 -9 9 13 34 24 27 5 -3 9 -12 9 -20z"/>
<path d="M2451 1560 c-19 -11 -9 -45 14 -45 13 0 21 8 23 21 3 23 -17 37 -37
24z m29 -26 c0 -8 -7 -14 -15 -14 -15 0 -21 21 -9 33 10 9 24 -2 24 -19z"/>
<path d="M1820 1689 l0 -62 42 6 c65 9 88 57 48 97 -12 12 -33 20 -55 20 l-35
0 0 -61z"/>
</g>
</svg>
